<svg width="375" height="350" viewBox="0 0 375 350" fill="none" xmlns="http://www.w3.org/2000/svg">
<path d="M0 54.4034C0 54.4034 62.3738 43.0981 91.0555 36.3564C119.737 29.6147 174.699 20.125 218.581 14.3247C249.814 10.1967 311.015 6.63165 339.205 6.11291C367.396 5.59416 375 7.03122 375 7.03122V402H0V54.4034Z" fill="#F5F9FC"/>
<path d="M126.86 24.145C118.055 25.92 109.46 27.687 99.2652 29.794C98.5756 29.9206 97.9151 30.203 97.3222 30.6247C96.7294 31.0464 96.2161 31.599 95.8124 32.2501C95.4088 32.9012 95.1228 33.6378 94.9713 34.4167C94.8199 35.1956 94.8059 36.0011 94.9302 36.7863C95.0546 37.5714 95.3147 38.3203 95.6955 38.9892C96.0762 39.6581 96.5699 40.2335 97.1477 40.6817C97.7255 41.13 98.3757 41.4421 99.0603 41.5997C99.745 41.7574 100.45 41.7575 101.135 41.6C111.317 39.495 119.898 37.73 128.684 35.961C130.056 35.6846 131.275 34.797 132.074 33.4934C132.874 32.1897 133.186 30.5768 132.945 29.0095C132.703 27.4422 131.926 26.0489 130.785 25.1361C129.643 24.2232 128.232 23.8657 126.86 24.142V24.145Z" fill="#8FD89F"/>
<path d="M192.702 11.995C183.779 13.441 174.691 15.013 164.917 16.795C164.236 16.9198 163.583 17.1966 162.996 17.6096C162.408 18.0226 161.898 18.5637 161.494 19.2021C161.089 19.8404 160.799 20.5635 160.639 21.33C160.48 22.0966 160.454 22.8915 160.563 23.6695C160.672 24.4475 160.914 25.1934 161.276 25.8644C161.637 26.5355 162.111 27.1186 162.67 27.5805C163.228 28.0425 163.861 28.3741 164.532 28.5566C165.203 28.7391 165.899 28.7688 166.58 28.644C176.296 26.869 185.321 25.308 194.182 23.872C195.556 23.6425 196.795 22.8003 197.627 21.5298C198.459 20.2592 198.817 18.6638 198.622 17.0926C198.427 15.5215 197.695 14.1026 196.587 13.1465C195.478 12.1903 194.083 11.7749 192.707 11.9911L192.702 11.995Z" fill="#8FD89F"/>
<path d="M61.3821 37.57C51.076 39.642 42.0654 41.394 33.8339 42.925C33.1532 43.0516 32.5009 43.3302 31.9145 43.7449C31.328 44.1595 30.8187 44.7021 30.4158 45.3415C30.0128 45.981 29.7241 46.7049 29.566 47.4719C29.4079 48.2388 29.3836 49.0338 29.4945 49.8115C29.6053 50.5892 29.8492 51.3343 30.2121 52.0043C30.5751 52.6743 31.05 53.2561 31.6097 53.7165C32.1695 54.1768 32.8031 54.5067 33.4744 54.6873C34.1458 54.8679 34.8417 54.8956 35.5224 54.769C43.7986 53.228 52.8538 51.469 63.2019 49.389C64.5738 49.1133 65.7936 48.2263 66.593 46.9231C67.3925 45.6199 67.706 44.0073 67.4647 42.44C67.2234 40.8727 66.447 39.4792 65.3063 38.5658C64.1655 37.6525 62.754 37.2943 61.3821 37.57Z" fill="#8FD89F"/>
<path d="M364.694 0.960992C364.005 0.922909 363.316 1.04021 362.667 1.30621C362.018 1.5722 361.421 1.98165 360.91 2.51122C360.4 3.0408 359.985 3.6801 359.691 4.39263C359.396 5.10516 359.228 5.87698 359.194 6.66399C359.161 7.45101 359.264 8.23781 359.496 8.97949C359.729 9.72116 360.088 10.4032 360.551 10.9866C361.015 11.5701 361.574 12.0435 362.198 12.3798C362.822 12.7162 363.497 12.9089 364.186 12.947C367.381 13.1243 370.574 13.33 373.763 13.564V1.54003C370.743 1.32737 367.72 1.13433 364.694 0.960992Z" fill="#8FD89F"/>
<path d="M325.96 0H325.94C316.699 0.04 307.218 0.272026 297.755 0.689026C296.362 0.719128 295.036 1.38011 294.07 2.52661C293.104 3.67312 292.576 5.21119 292.602 6.80249C292.628 8.39379 293.207 9.90797 294.21 11.0119C295.214 12.1158 296.56 12.7191 297.953 12.689C298.022 12.689 298.092 12.689 298.16 12.684C307.499 12.273 316.857 12.044 325.976 12.004C327.369 12.0011 328.704 11.3662 329.687 10.2389C330.67 9.11161 331.221 7.58434 331.218 5.99304C331.216 4.40174 330.66 2.87676 329.673 1.7536C328.686 0.630446 327.349 0.00111104 325.957 0.00402832L325.96 0Z" fill="#8FD89F"/>
<path d="M259.096 3.36899C249.992 4.22199 240.563 5.25801 231.073 6.44901C229.737 6.6146 228.507 7.35894 227.637 8.52891C226.767 9.69887 226.323 11.2054 226.395 12.7384C226.468 14.2715 227.052 15.7144 228.028 16.7701C229.004 17.8259 230.296 18.4142 231.64 18.414C231.834 18.4135 232.027 18.4012 232.22 18.377C241.614 17.198 250.946 16.177 259.954 15.33C261.342 15.2 262.628 14.4453 263.53 13.2318C264.431 12.0184 264.873 10.4456 264.76 8.85947C264.646 7.27334 263.985 5.80381 262.923 4.77414C261.861 3.74448 260.484 3.23904 259.096 3.36899Z" fill="#8FD89F"/>
<path d="M1.05652 50.91C0.737503 50.5697 0.382595 50.2761 0 50.036L0 60.526C0.382913 60.2826 0.737813 59.9856 1.05652 59.642C1.66115 58.993 2.12227 58.1892 2.40197 57.2968C2.68166 56.4045 2.77193 55.449 2.66536 54.509C2.51118 53.1323 1.94235 51.8599 1.05652 50.91Z" fill="#8FD89F"/>
</svg>
