<svg width="375" height="348" viewBox="0 0 375 348" fill="none" xmlns="http://www.w3.org/2000/svg">
<path d="M375 48.432C375 48.432 321.698 57.9277 283.628 60.4665C246.035 62.9704 166.326 40.2088 157.104 37.9618C147.881 35.7149 69.3098 13.9067 36.0392 9.6327C4.94752 5.63452 0 6.00934 0 6.00934L0.133835 400H374.883L375 48.432Z" fill="#F5F9FC"/>
<path d="M84.2215 12.359C74.7744 10.259 65.6911 8.45898 56.4425 6.86498C55.0661 6.62722 53.6634 7.02428 52.543 7.9688C51.4227 8.91333 50.6764 10.328 50.4685 11.9015C50.2605 13.475 50.6078 15.0785 51.434 16.3593C52.2602 17.6401 53.4977 18.4932 54.8741 18.7309C63.9757 20.3029 72.9199 22.072 82.2175 24.139C83.584 24.4428 85 24.1136 86.1542 23.2238C87.3083 22.334 88.106 20.9566 88.3717 19.3945C88.6375 17.8323 88.3495 16.2135 87.5712 14.8941C86.7929 13.5747 85.588 12.6628 84.2215 12.359Z" fill="#8FD89F"/>
<path d="M278.434 54.206C276.973 54.23 275.521 54.242 274.078 54.242C266.45 54.242 258.677 53.8909 250.976 53.1969C249.591 53.0769 248.22 53.5897 247.165 54.623C246.11 55.6563 245.456 57.1258 245.347 58.7093C245.238 60.2927 245.683 61.861 246.584 63.0702C247.485 64.2794 248.768 65.0309 250.153 65.1599C258.126 65.8779 266.176 66.242 274.078 66.242C275.572 66.242 277.074 66.2293 278.585 66.204C279.274 66.1927 279.954 66.0263 280.587 65.7143C281.22 65.4024 281.794 64.9509 282.274 64.3858C282.754 63.8206 283.133 63.1529 283.387 62.4206C283.642 61.6884 283.768 60.9059 283.758 60.118C283.748 59.33 283.603 58.552 283.33 57.8284C283.057 57.1048 282.662 56.4496 282.167 55.9005C281.673 55.3513 281.089 54.9189 280.448 54.6278C279.808 54.3367 279.124 54.1927 278.434 54.204V54.206Z" fill="#8FD89F"/>
<path d="M349.963 53.309C349.875 52.5274 349.653 51.7735 349.309 51.0902C348.966 50.4068 348.508 49.8074 347.962 49.3263C347.417 48.8452 346.793 48.4917 346.128 48.2861C345.462 48.0805 344.768 48.0268 344.084 48.128C334.564 49.536 325.27 50.72 316.46 51.647C315.117 51.7903 313.874 52.519 312.989 53.6819C312.104 54.8448 311.644 56.3527 311.705 57.8928C311.766 59.4329 312.343 60.887 313.317 61.9536C314.291 63.0201 315.586 63.6172 316.935 63.621C317.095 63.621 317.258 63.613 317.421 63.596C326.359 62.656 335.784 61.456 345.432 60.028C346.812 59.8236 348.065 59.001 348.915 57.741C349.764 56.481 350.142 54.8868 349.963 53.309Z" fill="#8FD89F"/>
<path d="M17.9531 1.56299C12.046 0.952988 6.03569 0.436 0 0V12.024C5.71904 12.444 11.411 12.935 17.0084 13.514C17.1685 13.53 17.3286 13.538 17.4869 13.538C18.8363 13.5344 20.1327 12.9367 21.1068 11.8691C22.0809 10.8015 22.6579 9.34598 22.7179 7.80481C22.7779 6.26364 22.3163 4.75523 21.429 3.5929C20.5418 2.43056 19.2969 1.70362 17.9531 1.56299Z" fill="#8FD89F"/>
<path d="M213.466 47.321C205.252 45.54 196.395 43.336 186.39 40.584C185.718 40.3933 185.02 40.3566 184.335 40.4759C183.651 40.5952 182.993 40.8681 182.402 41.279C181.81 41.6899 181.295 42.2305 180.887 42.8699C180.479 43.5093 180.185 44.2347 180.023 45.0043C179.861 45.7739 179.834 46.5726 179.943 47.3542C180.053 48.1359 180.296 48.8851 180.66 49.5587C181.023 50.2323 181.5 50.817 182.062 51.279C182.625 51.7411 183.261 52.0714 183.935 52.251C194.108 55.051 203.126 57.293 211.509 59.11C211.833 59.1814 212.163 59.2172 212.493 59.217C213.804 59.2223 215.069 58.6668 216.039 57.6598C217.01 56.6527 217.615 55.2671 217.737 53.7752C217.859 52.2834 217.489 50.7934 216.698 49.5982C215.908 48.4031 214.755 47.5893 213.466 47.3169V47.321Z" fill="#8FD89F"/>
<path d="M149.214 29.748C140.71 27.222 131.529 24.52 122.016 21.879C120.671 21.5265 119.258 21.794 118.084 22.6235C116.91 23.4531 116.069 24.778 115.744 26.3112C115.418 27.8445 115.634 29.4627 116.344 30.8155C117.054 32.1683 118.202 33.1468 119.539 33.539C128.98 36.161 138.111 38.849 146.575 41.362C147.244 41.5685 147.943 41.6213 148.63 41.5173C149.317 41.4134 149.98 41.1548 150.579 40.7565C151.179 40.3581 151.703 39.8279 152.123 39.1965C152.542 38.5651 152.847 37.8449 153.022 37.0777C153.196 36.3105 153.236 35.5114 153.138 34.7266C153.041 33.9417 152.808 33.1868 152.454 32.5052C152.1 31.8237 151.632 31.2291 151.075 30.7559C150.519 30.2826 149.886 29.9401 149.214 29.748Z" fill="#8FD89F"/>
</svg>
