<svg width="375" height="347" viewBox="0 0 375 347" fill="none" xmlns="http://www.w3.org/2000/svg">
<path d="M374.82 50.4537C374.82 50.4537 315.587 58.838 283.801 58.852C252.014 58.866 167.153 41.2475 157.929 38.9967C148.706 36.746 61.8215 16.0277 34.0702 10.3558C8.0486 5.03729 0 4 0 4V399H375L374.82 50.4537Z" fill="#F5F9FC"/>
<path d="M44.9041 3.87018C35.4742 2.30618 26.0347 1.01517 16.8482 0.0321699C16.1578 -0.0498503 15.4599 0.0253538 14.7951 0.253361C14.1302 0.481369 13.5115 0.857659 12.9747 1.36054C12.438 1.86342 11.9938 2.4829 11.6679 3.18311C11.342 3.88332 11.1408 4.65042 11.076 5.44001C11.0112 6.22959 11.0841 7.02599 11.2904 7.78321C11.4967 8.54042 11.8324 9.24342 12.278 9.85151C12.7236 10.4596 13.2703 10.9607 13.8865 11.3259C14.5026 11.6911 15.1761 11.9132 15.8679 11.9792C24.8837 12.9442 34.1411 14.2102 43.3959 15.7452C44.767 15.9558 46.1554 15.5399 47.2597 14.5878C48.3639 13.6357 49.0947 12.2243 49.2933 10.6602C49.492 9.09613 49.1424 7.50568 48.3206 6.23432C47.4988 4.96296 46.271 4.11341 44.9041 3.87018Z" fill="#8FD89F"/>
<path d="M175.211 36.0342C165.53 33.5472 156.052 30.9562 148.057 28.7472C147.387 28.5621 146.691 28.5296 146.01 28.6517C145.328 28.7738 144.675 29.0481 144.086 29.4588C143.497 29.8695 142.985 30.4087 142.579 31.0455C142.173 31.6823 141.88 32.4042 141.718 33.1702C141.556 33.9361 141.528 34.731 141.635 35.5095C141.742 36.2879 141.982 37.0347 142.341 37.7072C142.701 38.3797 143.173 38.9647 143.73 39.4288C144.288 39.893 144.919 40.2271 145.59 40.4122C153.625 42.6302 163.153 45.2362 172.907 47.7412C173.583 47.9241 174.284 47.952 174.97 47.8232C175.655 47.6944 176.312 47.4115 176.901 46.9909C177.49 46.5702 178 46.0202 178.402 45.3728C178.804 44.7253 179.089 43.9931 179.241 43.2188C179.394 42.4444 179.41 41.6432 179.29 40.8616C179.169 40.0799 178.914 39.3333 178.539 38.6651C178.164 37.9969 177.677 37.4203 177.106 36.9687C176.534 36.5171 175.89 36.1994 175.211 36.0342Z" fill="#8FD89F"/>
<path d="M305.71 52.8942C301.49 53.0082 297.291 53.0612 293.143 53.0342C288.126 53.0072 283.044 52.8842 278.036 52.6682C276.644 52.6081 275.288 53.1822 274.267 54.2642C273.245 55.3462 272.642 56.8475 272.589 58.4377C272.537 60.0279 273.039 61.5769 273.986 62.7438C274.934 63.9108 276.248 64.6001 277.64 64.6602C282.763 64.8812 287.962 65.0062 293.092 65.0342C293.757 65.0342 294.424 65.0359 295.092 65.0392C298.663 65.0392 302.319 64.9902 305.96 64.8902C307.353 64.8524 308.675 64.184 309.637 63.0321C310.598 61.8801 311.12 60.339 311.087 58.7477C311.054 57.1564 310.469 55.6453 309.461 54.5468C308.452 53.4483 307.103 52.8524 305.71 52.8902V52.8942Z" fill="#8FD89F"/>
<path d="M240.108 49.2422C231.134 48.0132 222.164 46.5082 212.684 44.6422C211.315 44.3803 209.911 44.7485 208.779 45.6662C207.646 46.5839 206.878 47.9764 206.642 49.5393C206.406 51.1022 206.721 52.7085 207.518 54.0067C208.316 55.3049 209.531 56.1895 210.898 56.4672C220.557 58.3732 229.703 59.9072 238.86 61.1602C239.069 61.1883 239.28 61.2027 239.49 61.2032C240.829 61.2025 242.117 60.6176 243.091 59.5681C244.065 58.5186 244.652 57.0838 244.731 55.5568C244.81 54.0299 244.375 52.5261 243.516 51.353C242.657 50.1798 241.438 49.4259 240.108 49.2452V49.2422Z" fill="#8FD89F"/>
<path d="M371.42 46.7242C361.658 48.1712 352.616 49.3312 343.777 50.2732C342.433 50.4166 341.189 51.1457 340.303 52.3092C339.417 53.4728 338.957 54.9814 339.019 56.522C339.081 58.0625 339.66 59.5168 340.635 60.5828C341.611 61.6489 342.908 62.2449 344.258 62.2472C344.421 62.2472 344.586 62.2392 344.751 62.2212C353.717 61.2662 362.883 60.0901 372.771 58.6211C373.427 58.5246 374.06 58.2871 374.639 57.9212V47.4311C373.66 46.8072 372.531 46.5594 371.42 46.7242Z" fill="#8FD89F"/>
<path d="M110.583 18.4632C100.477 15.7782 91.4871 13.5211 83.1032 11.5631C81.7444 11.2616 80.3362 11.5851 79.185 12.4633C78.0338 13.3415 77.2327 14.7035 76.9558 16.253C76.6789 17.8025 76.9487 19.4142 77.7065 20.7376C78.4643 22.061 79.6488 22.9892 81.0024 23.3202C89.2944 25.2572 98.1938 27.4921 108.208 30.1521C108.882 30.3374 109.582 30.3684 110.266 30.2434C110.95 30.1184 111.606 29.8399 112.196 29.4239C112.786 29.0079 113.298 28.4627 113.702 27.8196C114.107 27.1766 114.396 26.4484 114.553 25.6772C114.709 24.9059 114.731 24.1068 114.617 23.3259C114.502 22.545 114.253 21.7977 113.884 21.1272C113.516 20.4567 113.034 19.8762 112.468 19.4191C111.902 18.962 111.263 18.6375 110.587 18.4641L110.583 18.4632Z" fill="#8FD89F"/>
</svg>

