<svg width="375" height="351" viewBox="0 0 375 351" fill="none" xmlns="http://www.w3.org/2000/svg">
<path d="M0 51.177C0 51.177 68.5033 37.6154 97.0968 30.8771C125.69 24.1388 185.328 4.30736 220.069 6.11605C254.809 7.92474 292.087 9.80848 321.838 12.2628C351.59 14.7171 375 15.8181 375 15.8181L373.846 403H0V51.177Z" fill="#F5F9FC"/>
<path d="M73.8149 42.2137C74.1827 42.2135 74.5495 42.1693 74.9092 42.0818C83.1905 40.0638 92.1367 37.8278 102.259 35.2458C103.605 34.8895 104.774 33.9382 105.51 32.599C106.247 31.2598 106.492 29.6413 106.192 28.0961C105.892 26.5509 105.071 25.2043 103.908 24.3495C102.745 23.4948 101.335 23.2012 99.9843 23.5328C89.894 26.1068 80.9792 28.3328 72.7311 30.3448C71.4658 30.6528 70.3448 31.4867 69.5842 32.6857C68.8236 33.8847 68.4773 35.3639 68.6119 36.8382C68.7465 38.3125 69.3526 39.6775 70.3133 40.6701C71.2741 41.6627 72.5214 42.2125 73.8149 42.2137Z" fill="#8FD89F"/>
<path d="M138.604 25.7278C138.992 25.728 139.378 25.6787 139.755 25.5808C151.623 22.5288 159.765 20.4908 166.981 18.7668C168.341 18.442 169.532 17.5117 170.293 16.1805C171.054 14.8493 171.322 13.2262 171.039 11.6683C170.755 10.1104 169.943 8.74533 168.782 7.87338C167.62 7.00142 166.204 6.69406 164.844 7.01882C157.571 8.75682 149.381 10.8068 137.461 13.8718C136.203 14.1936 135.092 15.0362 134.342 16.2382C133.592 17.4402 133.256 18.9171 133.397 20.3858C133.539 21.8545 134.148 23.2117 135.108 24.1975C136.069 25.1832 137.313 25.7281 138.603 25.7278H138.604Z" fill="#8FD89F"/>
<path d="M8.65997 56.6298C8.95417 56.63 9.24785 56.6016 9.53784 56.5448C18.3357 54.8448 27.6231 52.9238 37.1435 50.8448C37.8243 50.7037 38.4739 50.4095 39.0548 49.979C39.6357 49.5485 40.1364 48.9904 40.528 48.3369C40.9196 47.6834 41.1943 46.9474 41.3362 46.1715C41.4781 45.3956 41.4845 44.5952 41.3549 43.8165C41.2253 43.0377 40.9623 42.2962 40.5811 41.6346C40.2 40.9731 39.7082 40.4046 39.1342 39.9621C38.5602 39.5197 37.9154 39.2119 37.237 39.0567C36.5586 38.9015 35.8601 38.9018 35.1819 39.0578C25.7339 41.1218 16.5189 43.0257 7.79432 44.7137C6.49944 44.9631 5.3336 45.761 4.52792 46.9491C3.72223 48.1373 3.33552 49.629 3.44445 51.1285C3.55337 52.628 4.14998 54.0259 5.116 55.045C6.08202 56.0642 7.34693 56.6302 8.65997 56.6308V56.6298Z" fill="#8FD89F"/>
<path d="M336.152 18.9108C345.014 19.6748 354.385 20.5108 364.007 21.4108C364.151 21.4248 364.294 21.4308 364.436 21.4308C365.788 21.4308 367.089 20.8309 368.064 19.757C369.039 18.683 369.614 17.2182 369.667 15.6694C369.721 14.1207 369.25 12.6082 368.352 11.4488C367.455 10.2894 366.2 9.57302 364.852 9.44977C355.21 8.55577 345.819 7.71377 336.938 6.94977C335.554 6.83042 334.184 7.34637 333.131 8.3841C332.079 9.42183 331.429 10.8964 331.324 12.4833C331.22 14.0702 331.67 15.6396 332.576 16.8461C333.482 18.0526 334.768 18.7974 336.153 18.9168L336.152 18.9108Z" fill="#8FD89F"/>
<path d="M269.978 13.9438C278.63 14.4668 288.005 15.1008 297.839 15.8268C297.955 15.8358 298.069 15.8398 298.182 15.8398C299.54 15.8363 300.844 15.2285 301.818 14.1446C302.792 13.0607 303.361 11.5856 303.404 10.0304C303.447 8.47523 302.961 6.96166 302.049 5.80909C301.137 4.65652 299.87 3.9551 298.515 3.85279C288.638 3.12179 279.223 2.48579 270.529 1.95979C269.142 1.87611 267.783 2.42716 266.751 3.49171C265.719 4.55626 265.098 6.04712 265.025 7.6363C264.952 9.22548 265.432 10.7828 266.361 11.9656C267.29 13.1485 268.591 13.8601 269.978 13.9438Z" fill="#8FD89F"/>
<path d="M203.842 12.2858C203.916 12.2858 203.989 12.2858 204.062 12.2808C211.262 11.9418 220.576 11.9148 231.688 12.1988C233.077 12.2346 234.421 11.6368 235.425 10.5369C236.429 9.43698 237.01 7.92511 237.042 6.33381C237.073 4.74251 236.551 3.20212 235.591 2.05159C234.631 0.901051 233.312 0.234608 231.924 0.198804C220.579 -0.093196 211.062 -0.0632444 203.631 0.286756C202.262 0.350826 200.97 1.02711 200.031 2.17048C199.093 3.31386 198.582 4.83326 198.61 6.40278C198.638 7.9723 199.201 9.46693 200.179 10.566C201.157 11.6651 202.472 12.2811 203.842 12.2818V12.2858Z" fill="#8FD89F"/>
</svg>

