<svg width="375" height="349" viewBox="0 0 375 349" fill="none" xmlns="http://www.w3.org/2000/svg">
<path d="M0 62.0584C0 62.0584 60.7753 47.9491 89.4579 41.2167C118.14 34.4843 212.672 17.9655 219.169 17.0339C225.667 16.1023 315.017 6.73715 343.207 6.22682C371.398 5.71648 375 6.22682 375 6.22682V401H0V62.0584Z" fill="#F5F9FC"/>
<path d="M191.14 26.8431C191.389 26.8425 191.638 26.8221 191.884 26.782C201.329 25.253 210.654 23.8201 219.602 22.5261C220.301 22.4482 220.979 22.2109 221.597 21.8282C222.214 21.4455 222.758 20.9252 223.196 20.2982C223.634 19.6711 223.958 18.95 224.148 18.1774C224.338 17.4049 224.391 16.5967 224.302 15.8006C224.214 15.0045 223.987 14.2367 223.634 13.5427C223.282 12.8486 222.811 12.2425 222.25 11.76C221.688 11.2775 221.048 10.9286 220.367 10.7338C219.685 10.5391 218.977 10.5024 218.283 10.626C209.284 11.926 199.905 13.3671 190.41 14.9051C189.093 15.1158 187.895 15.8894 187.058 17.0698C186.221 18.2502 185.807 19.7495 185.899 21.2651C185.992 22.7806 186.584 24.1996 187.557 25.2356C188.53 26.2716 189.81 26.8475 191.14 26.847V26.8431Z" fill="#8FD89F"/>
<path d="M125.36 38.6241C125.657 38.6239 125.954 38.5952 126.248 38.5381C135.598 36.7181 144.892 34.967 153.866 33.333C155.242 33.0827 156.474 32.2183 157.292 30.93C158.11 29.6417 158.446 28.0351 158.227 26.4635C158.008 24.892 157.251 23.4843 156.123 22.5501C154.996 21.6159 153.589 21.2317 152.214 21.482C143.198 23.123 133.871 24.882 124.484 26.708C123.185 26.9589 122.017 27.7578 121.21 28.9465C120.403 30.1351 120.016 31.6267 120.126 33.1258C120.236 34.6249 120.835 36.022 121.804 37.0404C122.774 38.0587 124.042 38.6239 125.359 38.6241H125.36Z" fill="#8FD89F"/>
<path d="M59.8208 52.274C60.1577 52.2738 60.4939 52.2369 60.8248 52.164C70.0033 50.132 79.2624 48.1341 88.342 46.2231C89.0294 46.0916 89.6869 45.8052 90.2764 45.3805C90.8658 44.9559 91.3754 44.4015 91.7754 43.7495C92.1755 43.0976 92.4579 42.3613 92.6064 41.5834C92.7548 40.8055 92.7663 40.0017 92.64 39.2187C92.5138 38.4357 92.2525 37.6893 91.8712 37.0229C91.49 36.3564 90.9965 35.7834 90.4194 35.337C89.8424 34.8907 89.1933 34.58 88.5101 34.4231C87.8269 34.2662 87.1232 34.2661 86.44 34.423C77.328 36.341 68.0374 38.347 58.8273 40.385C57.545 40.6681 56.4011 41.4869 55.6187 42.6815C54.8363 43.8761 54.4716 45.3609 54.5957 46.8462C54.7198 48.3314 55.3238 49.7106 56.2899 50.7145C57.256 51.7185 58.5148 52.2752 59.8208 52.276V52.274Z" fill="#8FD89F"/>
<path d="M257.246 17.571C257.424 17.5714 257.602 17.5615 257.779 17.5411C267.388 16.4341 276.744 15.4811 285.589 14.7071C286.277 14.6469 286.947 14.4326 287.563 14.0764C288.178 13.7202 288.725 13.229 289.175 12.631C289.624 12.0329 289.965 11.3397 290.18 10.5908C290.394 9.84197 290.477 9.05217 290.425 8.26653C290.372 7.4809 290.185 6.71483 289.873 6.01202C289.561 5.3092 289.131 4.68346 288.608 4.17046C288.084 3.65747 287.477 3.26723 286.822 3.02215C286.166 2.77707 285.475 2.68191 284.787 2.74206C275.859 3.52306 266.418 4.48504 256.726 5.60204C255.387 5.75814 254.151 6.49564 253.274 7.66228C252.397 8.82893 251.946 10.3357 252.013 11.8715C252.081 13.4073 252.662 14.8549 253.636 15.9155C254.611 16.9761 255.905 17.5687 257.251 17.571H257.246Z" fill="#8FD89F"/>
<path d="M27.1287 53.716C26.9887 52.9444 26.7172 52.2119 26.3294 51.5602C25.9417 50.9085 25.4454 50.3505 24.8688 49.918C24.2923 49.4854 23.6468 49.1868 22.9693 49.0393C22.2918 48.8918 21.5954 48.8981 20.92 49.058C11.8964 51.193 4.75909 52.9371 0 54.1161V66.396C4.56652 65.258 12.51 63.303 23.0514 60.803C24.4143 60.4801 25.6093 59.5523 26.3738 58.2235C27.1383 56.8946 27.4098 55.2734 27.1287 53.716Z" fill="#8FD89F"/>
<path d="M323.687 12.3121H323.848C329.859 12.1071 335.705 12.0021 341.225 12.0021C342.176 12.0021 343.122 12.0054 344.065 12.0121C346.599 12.0281 349.11 12.0648 351.6 12.1221C352.993 12.1539 354.34 11.5523 355.345 10.4496C356.349 9.34689 356.929 7.83339 356.957 6.24209C356.985 4.65079 356.458 3.11204 355.493 1.96432C354.528 0.816594 353.203 0.153918 351.81 0.122092C349.27 0.0647591 346.709 0.0274262 344.128 0.0100929C343.165 0.00275957 342.197 -0.000583525 341.225 8.31416e-05C335.601 8.31416e-05 329.649 0.107062 323.534 0.316062C322.844 0.327553 322.163 0.494152 321.53 0.806297C320.897 1.11844 320.323 1.57006 319.843 2.13534C319.362 2.70061 318.984 3.3685 318.729 4.10085C318.475 4.8332 318.349 5.61566 318.359 6.40359C318.369 7.19152 318.515 7.96946 318.788 8.69302C319.061 9.41657 319.456 10.0716 319.951 10.6206C320.446 11.1697 321.031 11.6019 321.672 11.8928C322.313 12.1838 322.998 12.3276 323.687 12.3161V12.3121Z" fill="#8FD89F"/>
</svg>
